<svg xmlns="http://www.w3.org/2000/svg" viewBox="0 0 1440 320"><path fill="#a2d9ff" fill-opacity="1" d="M0,0L34.3,53.3C68.6,107,137,213,206,224C274.3,235,343,149,411,144C480,139,549,213,617,213.3C685.7,213,754,139,823,138.7C891.4,139,960,213,1029,245.3C1097.1,277,1166,267,1234,261.3C1302.9,256,1371,256,1406,256L1440,256L1440,320L1405.7,320C1371.4,320,1303,320,1234,320C1165.7,320,1097,320,1029,320C960,320,891,320,823,320C754.3,320,686,320,617,320C548.6,320,480,320,411,320C342.9,320,274,320,206,320C137.1,320,69,320,34,320L0,320Z"/></svg>